# xmcd
#
# Track frame offsets: 
#        150
#        14640
#        24652
#        44505
#        57005
#        67715
#        79892
#        97435
#        109312
#        124452
#        148472
#        176030
#        192092
#        207505
#        225297
#        245765
#        256430
#
# Disc length: 3784 seconds
#
# Revision: 2
# Processed by: cddbd v1.5.2PL0 Copyright (c) Steve Scherf et al.
# Submitted via: ExactAudioCopy v1.0b3
#
DISCID=050ec611
DTITLE=Campbell, Glen - Wichita Lineman - Live In Concert
DYEAR=1997
DGENRE=Country
TTITLE0=Rhinestone Cowboy
TTITLE1=Gentle On My Mind
TTITLE2=Medley - Wichita Lineman - Galveston - Country Boy
TTITLE3=By The Time I Get To Phoenix
TTITLE4=Dreams Of The Everyday Housewife
TTITLE5=Heartache Number Three
TTITLE6=Please Come To Boston
TTITLE7=Crying
TTITLE8=It's Only Make Believe
TTITLE9=Blue Grass Medley - Rocky Top - Orange Blossom Special
TTITLE10=Milk Cow Blues
TTITLE11=Rollin' (In My Sweet Baby's Arms)
TTITLE12=I'm So Lonesome I Could Cry
TTITLE13=Southern Nights
TTITLE14=Amazing Grace
TTITLE15=Try A Little Kindness
TTITLE16=Mull Of Kintyre
EXTD=
EXTT0=
EXTT1=
EXTT2=
EXTT3=
EXTT4=
EXTT5=
EXTT6=
EXTT7=
EXTT8=
EXTT9=
EXTT10=
EXTT11=
EXTT12=
EXTT13=
EXTT14=
EXTT15=
EXTT16=
PLAYORDER=
